# xmcd
#
# Track frame offsets:
#	150
#	20648
#	44771
#	68381
#	88010
#	106426
#	125623
#	147099
#	166581
#	183560
#	203357
#
# Disc length: 3101 seconds
#
# Revision: 7
# Processed by: cddbd v1.5.2PL0 Copyright (c) Steve Scherf et al.
# Submitted via: EasyCDDAExtractor 15.3.0.1
#
DISCID=900c1b0b
DTITLE=Ana Gabriel - Huelo A Soledad
DYEAR=2001
DGENRE=Latin
TTITLE0=Miento A Mi Verdad
TTITLE1=Amado Mio
TTITLE2=Amigo Amante
TTITLE3=Huelo A Soledad (A Capella)
TTITLE4=Cinco Dias
TTITLE5=Amandote
TTITLE6=Tanto Amor
TTITLE7=Huelo A Soledad
TTITLE8=Desencuentro
TTITLE9=Me He Cansado De Ti
TTITLE10=Cuando Tienes Ganas
EXTD=
EXTT0=
EXTT1=
EXTT2=
EXTT3=
EXTT4=
EXTT5=
EXTT6=
EXTT7=
EXTT8=
EXTT9=
EXTT10=
PLAYORDER=
